<svg width="58" height="58" xmlns="http://www.w3.org/2000/svg" xmlns:xlink="http://www.w3.org/1999/xlink" xml:space="preserve" overflow="hidden"><g transform="translate(-58 -198)"><g><g><g><g><path d="M87.503 213.844C79.9609 213.844 73.8467 219.958 73.8467 227.5 73.8467 235.042 79.9609 241.156 87.503 241.156 95.0451 241.156 101.159 235.042 101.159 227.5 101.151 219.961 95.0416 213.852 87.503 213.844ZM85.5614 233.06 79.6103 227.108 81.6326 225.086 85.5614 229.015 93.6079 220.969 95.6302 222.991Z" fill="#92D050" fill-rule="nonzero" fill-opacity="1"/><path d="M107.762 228.251C107.405 227.814 107.405 227.186 107.762 226.749L109.225 224.956C109.64 224.448 109.564 223.7 109.057 223.285 109.022 223.257 108.986 223.231 108.948 223.207L107.002 221.954C106.528 221.648 106.334 221.052 106.538 220.526L107.376 218.368C107.613 217.757 107.31 217.069 106.699 216.831 106.657 216.815 106.615 216.801 106.572 216.79L104.334 216.2C103.789 216.056 103.42 215.548 103.451 214.985L103.581 212.674C103.618 212.019 103.117 211.459 102.462 211.422 102.418 211.419 102.373 211.419 102.329 211.422L100.018 211.552C99.4548 211.583 98.947 211.214 98.8032 210.669L98.213 208.431C98.0457 207.797 97.396 207.419 96.7618 207.586 96.7188 207.597 96.6763 207.611 96.6348 207.627L94.4772 208.465C93.9513 208.669 93.3545 208.475 93.0492 208.001L91.7964 206.055C91.4413 205.504 90.7065 205.344 90.1551 205.699 90.1174 205.724 90.0812 205.75 90.0466 205.778L88.2541 207.241C87.8169 207.598 87.189 207.598 86.7519 207.241L84.9593 205.778C84.4514 205.363 83.7034 205.439 83.2884 205.946 83.2601 205.981 83.2338 206.017 83.2096 206.055L81.9567 208.001C81.6514 208.475 81.0546 208.669 80.5288 208.465L78.3711 207.627C77.7598 207.39 77.0717 207.693 76.8342 208.304 76.8181 208.346 76.8042 208.388 76.7929 208.431L76.2027 210.669C76.0589 211.214 75.5511 211.583 74.9879 211.552L72.677 211.422C72.0222 211.385 71.4616 211.886 71.4248 212.541 71.4223 212.585 71.4223 212.63 71.4248 212.674L71.5548 214.985C71.5864 215.548 71.2174 216.056 70.6719 216.2L68.4341 216.79C67.8 216.957 67.4216 217.607 67.5889 218.241 67.6002 218.284 67.614 218.327 67.6302 218.368L68.4679 220.526C68.672 221.052 68.4779 221.648 68.0036 221.954L66.0579 223.207C65.5064 223.561 65.3469 224.296 65.7017 224.848 65.7259 224.885 65.7523 224.922 65.7806 224.956L67.2442 226.749C67.6012 227.186 67.6012 227.814 67.2442 228.251L65.7806 230.044C65.3658 230.552 65.4413 231.3 65.9493 231.714 65.984 231.743 66.0203 231.769 66.0579 231.793L68.0036 233.046C68.4779 233.352 68.672 233.948 68.4679 234.474L67.6302 236.632C67.3927 237.243 67.6958 237.931 68.3071 238.169 68.3486 238.185 68.391 238.199 68.4341 238.21L70.6719 238.8C71.2174 238.944 71.5864 239.452 71.5548 240.015L71.4248 242.326C71.3881 242.981 71.8891 243.541 72.5439 243.578 72.5882 243.581 72.6327 243.581 72.677 243.578L74.9879 243.448C75.5511 243.417 76.0589 243.786 76.2027 244.331L76.7929 246.569C76.9602 247.203 77.61 247.581 78.2441 247.414 78.2871 247.403 78.3296 247.389 78.3711 247.373L80.5288 246.535C81.0546 246.331 81.6514 246.525 81.9567 246.999L83.2096 248.945C83.5646 249.496 84.2995 249.656 84.8509 249.301 84.8885 249.276 84.9247 249.25 84.9593 249.222L86.7519 247.759C87.189 247.402 87.8169 247.402 88.2541 247.759L90.0466 249.222C90.5545 249.637 91.3026 249.561 91.7175 249.054 91.7458 249.019 91.7721 248.983 91.7964 248.945L93.0492 246.999C93.3545 246.525 93.9513 246.331 94.4772 246.535L96.6348 247.373C97.2462 247.61 97.9343 247.307 98.1718 246.696 98.1879 246.654 98.2017 246.612 98.213 246.569L98.8032 244.331C98.947 243.786 99.4548 243.417 100.018 243.448L102.329 243.578C102.984 243.615 103.544 243.114 103.581 242.459 103.584 242.415 103.584 242.37 103.581 242.326L103.451 240.015C103.42 239.452 103.789 238.944 104.334 238.8L106.572 238.21C107.206 238.043 107.584 237.393 107.417 236.759 107.406 236.716 107.392 236.673 107.376 236.632L106.538 234.474C106.334 233.948 106.528 233.352 107.002 233.046L108.948 231.793C109.499 231.438 109.659 230.704 109.304 230.152 109.279 230.114 109.253 230.078 109.225 230.044ZM87.503 242.938C78.9771 242.938 72.0655 236.026 72.0655 227.5 72.0655 218.974 78.9771 212.062 87.503 212.062 96.0289 212.062 102.94 218.974 102.94 227.5 102.931 236.022 96.0249 242.928 87.503 242.938Z" fill="#92D050" fill-rule="nonzero" fill-opacity="1"/></g></g></g></g></g></svg>