<svg width="54" height="54" xmlns="http://www.w3.org/2000/svg" xmlns:xlink="http://www.w3.org/1999/xlink" xml:space="preserve" overflow="hidden"><g transform="translate(-64 -316)"><g><path d="M91 321.625C79.1875 321.625 69.625 331.188 69.625 343 69.625 354.812 79.1875 364.375 91 364.375 102.812 364.375 112.375 354.812 112.375 343 112.375 331.188 102.812 321.625 91 321.625ZM76.375 343C76.375 340.188 77.1625 337.544 78.5687 335.35L98.7063 355.487C96.4563 356.837 93.8125 357.625 91 357.625 82.9563 357.625 76.375 351.044 76.375 343ZM103.431 350.65 83.35 330.569C85.5437 329.163 88.1875 328.375 91 328.375 99.0437 328.375 105.625 334.956 105.625 343 105.625 345.812 104.838 348.456 103.431 350.65Z" fill="#EE0000" fill-rule="nonzero" fill-opacity="1"/></g></g></svg>